<svg width="250" height="37" viewBox="0 0 250 37" fill="none" xmlns="http://www.w3.org/2000/svg">
<g clip-path="url(#clip0_225_15)">
<path d="M13.9941 36.3198C13.1511 36.3198 12.5104 35.8892 11.9792 35.3827C11.2037 34.6397 10.5292 33.787 10.1752 32.7486C9.9897 32.2083 9.90539 31.6426 9.74522 31.0938C9.13824 28.9748 8.64085 26.8135 7.80625 24.7619C7.5702 24.171 7.4016 23.5462 7.18241 22.9552C6.71032 21.6889 6.22136 20.4394 5.75769 19.173C5.49636 18.4638 5.30246 17.7209 5.02426 17.0201C4.56902 15.8804 4.02949 14.7744 3.59111 13.6347C3.37192 13.0606 3.29605 12.4358 3.11902 11.8449C2.95884 11.3214 2.74808 10.8064 2.56262 10.283C2.23384 9.3712 1.92192 8.45941 1.56784 7.55606C1.23063 6.68647 0.834409 5.84222 0.514059 4.9642C0.286441 4.35633 0.100975 3.7147 0.00824155 3.08151C-0.0592007 2.55807 0.185278 2.05996 0.56464 1.67161C1.85447 0.354572 2.67221 0.320802 4.23181 1.59562C5.36147 2.53275 5.99374 3.84978 6.42369 5.2428C6.61758 5.88443 6.85363 6.51762 7.05596 7.15926C7.57863 8.80555 8.08445 10.4518 8.60713 12.0981C9.00335 13.3308 9.44173 14.5549 9.7958 15.796C10.0656 16.7415 10.2426 17.7124 10.4702 18.6664C10.5208 18.8691 10.563 19.0717 10.6304 19.2659C11.1699 20.794 11.6673 22.3389 12.2659 23.8502C12.6031 24.7113 13.0415 25.5387 13.2185 26.4673C13.2354 26.5518 13.3281 26.6784 13.3955 26.6953C13.7327 26.7459 14.0868 26.805 14.424 26.7713C14.7444 26.7375 14.9467 26.5349 15.0394 26.1718C15.2418 25.3867 15.5031 24.6184 15.7729 23.8502C16.5232 21.6804 17.2988 19.5191 18.0575 17.3494C18.597 15.8044 19.0775 14.2341 19.6508 12.6976C20.1735 11.2877 20.7805 9.91152 21.3369 8.51851C21.4717 8.16392 21.556 7.79245 21.6488 7.42098C21.8848 6.39943 22.3148 5.46231 22.8374 4.55895C23.0061 4.26347 23.1494 3.92576 23.1831 3.59651C23.3095 2.33857 23.9418 1.40145 24.9872 0.700716C25.5857 0.303917 26.2096 0.244819 26.8587 0.624733C27.6343 1.07219 28.1738 1.74759 28.7555 2.38922C29.548 3.2588 29.9526 4.29724 30.2139 5.43698C30.5174 6.77934 30.9558 8.09638 31.3689 9.41341C31.9506 11.2623 32.5407 13.1028 33.1645 14.9264C33.468 15.8044 33.8811 16.6487 34.2015 17.5267C34.7832 19.1392 35.3143 20.7602 35.8791 22.3727C35.9297 22.5134 35.9859 22.7104 36.0477 22.9637C36.0983 23.0903 36.1404 23.2507 36.1826 23.4365C36.2753 24.0612 36.3259 24.3567 36.4608 25.1081C36.5282 25.6653 36.6125 25.8426 36.7896 26.5433C36.8233 26.8135 37.1605 27.1174 37.5314 27.2356C37.8265 27.3285 37.9951 27.3707 38.5684 27.1174C38.7538 27.033 38.7201 27.0668 38.8887 26.9064C39.2091 26.594 39.3355 26.3238 39.4282 26.0199C39.58 25.5049 39.7402 24.9983 39.9003 24.4918C40.3471 23.0397 40.8192 21.596 41.2408 20.1354C41.696 18.5398 42.0838 16.9273 42.5474 15.3401C42.9015 14.1497 43.3146 12.9762 43.7361 11.8111C44.0312 11.0006 44.3937 10.2155 44.6803 9.39653C45.0007 8.48473 45.2704 7.55606 45.5823 6.63582C45.7594 6.11238 45.9448 5.58894 46.1387 5.07395C46.3664 4.47453 46.594 3.87511 46.8553 3.29257C47.4202 2.05152 48.3728 1.20727 49.6542 0.717601C50.1769 0.523423 51.4751 0.911779 51.6774 1.393C51.846 1.79825 51.8713 2.3048 51.8208 2.74381C51.6943 3.98486 51.2475 5.14993 50.8176 6.315C50.6321 6.81311 50.5225 7.33655 50.3792 7.85154C50.278 8.23146 50.2021 8.62826 50.0841 9.00817C49.4181 11.1526 48.7606 13.297 48.0608 15.4329C47.8332 16.1168 47.4623 16.7584 47.2094 17.4338C46.8047 18.4976 46.4507 19.5782 46.0629 20.6504C45.9786 20.8784 45.869 21.0894 45.7847 21.3174C45.3379 22.5669 44.8995 23.8164 44.4358 25.0659C44.1239 25.927 43.7698 26.7713 43.4579 27.6324C43.2472 28.1981 43.0786 28.7806 42.8847 29.3547C42.3367 30.9757 41.7887 32.5882 41.2492 34.2091C40.9963 34.9774 40.4399 35.5346 39.9088 36.1003C39.8413 36.1678 39.7233 36.2269 39.6306 36.2269C38.8466 36.2354 38.0541 36.5055 37.2954 36.2269C36.8739 36.0665 36.4439 35.8048 36.1404 35.484C35.643 34.9521 35.3227 34.3189 35.0951 33.6013C34.6483 32.1745 34.1003 30.773 33.5945 29.3631C33.4259 28.8903 33.2404 28.4344 33.0549 27.9701C32.2372 25.9186 31.3858 23.8755 30.6102 21.8155C29.9695 20.1186 29.3793 18.4047 28.8145 16.6824C28.4604 15.6018 28.1907 14.4958 27.8619 13.4067C27.7186 12.9255 27.5247 12.4612 27.3645 11.9884C27.2549 11.6676 27.1706 11.3299 27.0526 11.0091C26.9851 10.8149 26.9093 10.6123 26.7744 10.4687C26.4119 10.0635 26.0747 10.1057 25.729 10.5194C25.0546 11.3383 24.8439 12.3345 24.5741 13.3054C24.279 14.3692 23.9165 15.4076 23.6046 16.4629C23.436 17.037 23.3264 17.6364 23.1662 18.2105C23.0398 18.6749 22.9049 19.1392 22.7363 19.5951C22.1124 21.3512 21.4717 23.0988 20.8395 24.8548C20.713 25.1925 20.595 25.5387 20.4685 25.8764C20.1398 26.7882 19.811 27.6999 19.4738 28.6033C19.3557 28.9241 19.1871 29.228 19.0523 29.5489C18.5717 30.7139 18.1081 31.8874 17.6191 33.0441C17.3156 33.7617 16.9784 34.4624 16.6581 35.1632C16.4726 35.5684 16.1269 35.8217 15.7223 35.9399C15.1575 36.1003 14.5673 36.1931 13.9857 36.3113L13.9941 36.3198Z" fill="white"/>
<path d="M107.343 16.5811C108.936 16.5811 110.53 16.5474 112.115 16.5811C114.104 16.6318 116.009 16.3194 117.83 15.4921C118.227 15.3148 118.648 15.1966 119.061 15.053C119.862 14.7744 120.418 14.2088 120.848 13.5249C121.245 12.8917 121.599 12.2417 121.961 11.5916C122.062 11.4143 122.113 11.2117 122.172 11.0175C122.467 10.0382 122.147 9.24457 121.447 8.52696C120.907 7.96975 120.486 7.29435 119.921 6.76247C118.42 5.31035 116.633 4.50831 114.484 4.66872C113.826 4.71937 113.168 4.82913 112.511 4.87134C111.659 4.93044 110.799 4.96421 109.948 4.97265C108.27 4.98953 106.593 4.98953 104.907 4.97265C103.128 4.95576 101.341 4.89667 99.5619 4.87978C99.1994 4.87978 98.9802 4.75314 98.9718 4.39011C98.9381 3.42766 98.8706 2.46522 98.9044 1.50277C98.9212 0.911789 99.3596 0.641628 100.068 0.641628C101.408 0.641628 102.749 0.641628 104.089 0.641628C105.21 0.641628 106.331 0.6163 107.444 0.641628C109.923 0.700726 112.401 0.751381 114.88 0.861134C115.908 0.903346 116.928 1.08908 117.948 1.20728C118.395 1.25793 118.859 1.28326 119.297 1.37613C121.261 1.77293 123.007 2.6003 124.406 4.05241C125.805 5.50453 126.64 7.25213 127.053 9.19392C127.247 10.1057 127.011 11.0175 126.775 11.8955C126.387 13.3308 125.923 14.7407 124.912 15.9057C124.735 16.1168 124.558 16.3279 124.347 16.5052C123.791 16.9695 123.673 17.8475 124.153 18.3878C124.861 19.1899 125.62 19.9582 126.336 20.7518C127.289 21.7902 127.947 22.9975 128.292 24.3567C128.385 24.7197 128.25 25.1334 128.25 25.5302C128.233 26.2816 128.25 27.0414 128.233 27.7928C128.208 28.4936 128.233 29.2196 128.065 29.895C127.854 30.7224 127.525 31.5413 127.146 32.3096C126.927 32.757 126.547 33.1538 126.168 33.5084C125.451 34.2007 124.617 34.7241 123.656 35.0534C122.265 35.5262 120.857 35.7626 119.39 35.7626C119.129 35.7626 118.876 35.8301 118.614 35.8554C117.712 35.9652 116.819 36.075 115.917 36.1678C115.453 36.2185 114.981 36.2438 114.509 36.2522C114.214 36.2607 113.919 36.2354 113.624 36.2269C112.663 36.2185 111.702 36.1932 110.74 36.2016C110.184 36.2016 109.628 36.2691 109.071 36.2607C108.22 36.2522 107.36 36.1763 106.508 36.1763C104.586 36.1594 102.664 36.1763 100.734 36.1763C100.253 36.1763 99.798 36.1087 99.4017 35.8048C98.7863 35.332 98.8538 34.6566 98.8369 34.015C98.8369 33.8799 98.8791 33.7448 98.8875 33.6013C98.9297 32.7739 99.3596 32.3518 100.203 32.3434C100.953 32.3349 101.703 32.3434 102.454 32.3434C104.03 32.3434 105.606 32.318 107.174 32.3434C108.515 32.3771 109.855 32.4953 111.196 32.5291C111.946 32.546 112.696 32.4615 113.447 32.4362C114.037 32.4193 114.627 32.4193 115.217 32.4362C116.979 32.4784 118.665 32.0394 120.258 31.3725C121.725 30.7562 122.948 29.7937 123.673 28.3078C123.984 27.6746 124.001 27.0077 124.018 26.3407C124.052 25.1334 123.453 24.1625 122.72 23.2676C122.577 23.0903 122.459 22.8877 122.29 22.7526C122.054 22.5669 121.776 22.4234 121.514 22.2714C121.498 22.263 121.481 22.2714 121.464 22.2545C120.385 21.4947 119.019 21.5031 117.856 20.929C117.004 20.5069 116.001 20.3718 114.998 20.6927C113.759 21.0979 112.469 21.157 111.17 21.157C108.203 21.157 105.227 21.233 102.26 21.233C101.425 21.233 100.599 21.0895 99.7642 20.9881C99.2921 20.929 98.9887 20.6336 98.9802 20.1608C98.9549 19.2152 98.9802 18.2696 98.9802 17.3241C98.9802 17.037 99.1573 16.902 99.4439 16.8682C100.118 16.7838 100.784 16.6149 101.459 16.6065C103.431 16.5727 105.413 16.5896 107.385 16.5896L107.343 16.5811Z" fill="white"/>
<path d="M168.706 0.278604C170.485 0.185736 172.188 0.53188 173.874 1.0131C175.164 1.38458 176.471 1.71383 177.718 2.19506C179.033 2.70161 179.935 3.68939 180.323 5.05708C180.694 6.38256 179.48 7.69115 178.106 7.48853C176.622 7.27747 175.24 6.7287 173.899 6.09551C172.323 5.34412 170.696 4.922 168.951 4.9811C167.577 5.03175 166.186 5.11618 164.854 5.49609C164.078 5.7156 163.311 6.06174 162.628 6.50075C162.164 6.79624 161.853 7.32812 161.498 7.77558C161.018 8.36655 160.563 8.98286 160.074 9.56539C159.838 9.85244 159.863 10.1226 159.989 10.435C160.563 11.8618 161.456 13.0268 162.704 13.964C163.581 14.6225 164.559 14.9686 165.587 15.2557C168.453 16.0408 171.32 16.8006 174.169 17.6365C175.459 18.0164 176.665 18.6327 177.735 19.4685C178.435 20.0173 179.194 20.4816 179.851 21.0726C180.618 21.7649 181.166 22.6344 181.352 23.6813C181.419 24.0359 181.52 24.382 181.613 24.7366C182.119 26.746 181.799 28.6455 180.888 30.5029C180.188 31.9381 179.101 33.0356 177.98 34.1163C177.069 35.0028 175.982 35.6275 174.844 36.1425C174.371 36.3536 173.798 36.4295 173.267 36.4549C171.8 36.5224 170.333 36.5646 168.867 36.5646C166.978 36.5646 165.09 36.5224 163.21 36.4633C161.903 36.4211 160.664 36.0581 159.492 35.4755C158 34.7326 156.685 33.7364 155.462 32.622C155.42 32.5882 155.386 32.5544 155.353 32.5122C154.451 31.4062 154.409 30.9588 155.209 29.971C155.429 29.7008 155.639 29.4222 155.875 29.1774C156.415 28.6202 157.064 28.4936 157.789 28.8481C158.413 29.1521 159.02 29.4982 159.618 29.8528C160.689 30.4944 161.878 30.849 163.033 31.3049C164.5 31.8959 165.115 32.2927 166.607 32.8161C168.007 33.0356 168.875 33.4578 170.637 32.7908C171.502 32.3631 172.16 32.0535 172.61 31.8621C173.073 31.6595 173.587 31.5498 174.009 31.288C174.473 31.001 174.869 30.6042 175.29 30.2496C175.366 30.1821 175.417 30.0808 175.493 30.0132C176.707 28.8819 176.69 27.4973 176.327 26.0452C175.897 24.3229 174.582 23.5293 173.039 22.9299C170.839 22.0772 168.563 21.4609 166.304 20.8024C165.149 20.4647 163.96 20.2368 162.805 19.9075C162.308 19.764 161.819 19.5529 161.372 19.2912C160.032 18.5229 158.843 17.552 157.823 16.4123C156.668 15.1206 155.951 13.6347 155.96 11.8702C155.96 11.0428 155.934 10.2155 155.96 9.3881C156.019 7.91066 156.297 6.47542 156.988 5.14995C157.418 4.32258 158.008 3.62185 158.843 3.16595C158.978 3.08997 159.104 2.9971 159.222 2.89579C159.855 2.34702 160.596 2.02621 161.397 1.81515C163.083 1.36769 164.753 0.844253 166.447 0.447454C167.164 0.278604 167.939 0.346144 168.689 0.312374L168.706 0.278604Z" fill="white"/>
<path d="M191.966 28.9832C191.966 27.9279 191.958 26.881 191.966 25.8257C191.975 25.0068 192.051 24.1879 192.051 23.3605C192.051 22.5585 192 21.7564 191.975 20.9544C191.975 20.87 191.958 20.7855 191.958 20.6927C191.983 19.8569 192.034 19.0126 192.034 18.1768C192.034 17.4423 191.983 16.7078 191.975 15.9733C191.975 15.5765 192.051 15.1881 192.051 14.7913C192.059 13.7022 192.118 12.6132 192.042 11.5325C191.924 9.91999 191.941 8.29902 191.688 6.69494C191.528 5.65651 191.629 4.56742 191.629 3.50366C191.629 3.02244 191.671 2.54121 191.73 2.05999C191.789 1.58721 192.084 1.27483 192.548 1.14819C193.088 0.996229 193.619 0.835821 194.167 0.717625C194.428 0.658527 194.748 0.6332 194.984 0.717625C195.709 0.996229 196.443 1.29172 197.117 1.67163C197.665 1.97556 197.91 2.56654 197.918 3.1744C197.927 4.15374 197.893 5.14151 197.825 6.11241C197.8 6.50076 197.623 6.88068 197.53 7.26059C197.269 8.34124 197.202 9.43876 197.202 10.5447C197.202 11.8027 197.202 13.0522 197.202 14.3101C197.202 18.8944 197.202 23.4871 197.202 28.0714C197.202 28.7384 197.117 29.4138 197.109 30.0808C197.084 31.516 197.952 32.3096 199.436 32.4025C200.287 32.4531 201.147 32.3265 201.998 32.318C205.843 32.3096 209.695 32.318 213.539 32.318C213.784 32.318 214.037 32.3349 214.273 32.2674C214.914 32.0901 215.403 32.3265 215.824 32.7739C215.925 32.8837 215.993 33.0779 216.001 33.2383C216.018 33.9137 216.018 34.5806 216.001 35.256C216.001 35.4249 215.934 35.5937 215.892 35.7541C215.799 36.1341 215.563 36.2691 215.167 36.2607C213.894 36.2438 212.621 36.2438 211.348 36.2607C208.641 36.286 205.927 36.362 203.221 36.3451C200.616 36.3282 198.019 36.21 195.414 36.1594C194.858 36.1509 194.302 36.1932 193.745 36.2438C193.248 36.286 192.843 36.0918 192.649 35.6866C192.396 35.1463 192.127 34.5637 192.084 33.9897C191.966 32.3265 191.958 30.6464 191.907 28.9748H191.95L191.966 28.9832Z" fill="white"/>
<path d="M139.588 20.9713C139.588 16.7247 139.588 12.4781 139.588 8.23149C139.588 6.92289 139.571 5.6143 139.588 4.31415C139.613 3.10687 139.731 1.90803 140.279 0.793611C140.49 0.363042 140.777 0.092881 141.283 0.109766C141.316 0.109766 141.35 0.109766 141.384 0.101324C142.564 -0.151953 142.884 0.0759959 143.415 1.19041C143.601 1.57032 143.702 2.00934 143.753 2.43146C143.837 3.09842 143.871 3.77383 143.871 4.44079C143.913 11.6338 143.955 18.8269 143.963 26.0199C143.963 27.185 143.786 28.35 143.694 29.5151C143.643 30.1821 143.601 30.8575 143.559 31.5244C143.534 31.9044 143.534 32.2843 143.458 32.6557C143.297 33.4831 143.39 34.2767 143.567 35.0956C143.643 35.4587 143.458 35.8892 143.331 36.2691C143.297 36.3705 143.045 36.4464 142.884 36.4549C142.429 36.4802 141.974 36.4802 141.519 36.4549C140.701 36.4127 139.571 35.6444 139.571 34.378C139.571 34.2092 139.571 34.0319 139.571 33.863C139.571 29.5658 139.571 25.2685 139.571 20.9713H139.588Z" fill="white"/>
<path d="M239.496 21.1401C237.144 21.1401 235.18 21.157 233.224 21.1401C231.167 21.1232 229.102 21.081 227.045 21.0388C226.362 21.0219 226.159 20.9206 226.084 20.2705C225.966 19.249 225.915 18.2105 225.89 17.1805C225.873 16.7415 226.058 16.6065 226.505 16.5896C226.606 16.5896 226.716 16.5896 226.817 16.5896C234.143 16.5896 241.469 16.5896 248.795 16.5896C249.697 16.5896 249.747 16.6065 249.68 17.476C249.621 18.2781 249.672 19.1054 249.25 19.8484C248.871 20.5238 248.289 20.853 247.522 20.9459C244.715 21.2836 241.907 21.0979 239.488 21.1485L239.496 21.1401Z" fill="white"/>
<path d="M73.6643 16.5811C77.3399 16.5811 81.007 16.5811 84.6826 16.5811C85.4076 16.5811 85.4245 16.5811 85.551 17.3072C85.6774 18.0755 85.7027 18.8437 85.5088 19.612C85.3233 20.3296 84.8091 20.6758 84.1431 20.8108C83.494 20.9375 82.828 21.0135 82.1704 21.0304C78.6044 21.081 75.0384 21.1317 71.4724 21.1317C69.2721 21.1317 67.0718 21.081 64.8715 21.0219C64.138 21.005 63.413 20.9122 62.688 20.8108C62.1485 20.7349 61.9293 20.4647 61.9209 19.9244C61.904 18.9788 61.9124 18.0248 61.9209 17.0792C61.9209 16.6318 61.9799 16.5727 62.4435 16.5727C63.7924 16.5727 65.1412 16.5727 66.4817 16.5727C68.8759 16.5727 71.2785 16.5727 73.6727 16.5727L73.6643 16.5811Z" fill="white"/>
<path d="M237.313 4.56741C234.008 4.56741 230.703 4.56741 227.398 4.56741C226.353 4.56741 225.999 4.2888 225.864 3.29259C225.797 2.76915 225.771 2.22883 225.78 1.69695C225.78 1.17351 226.1 0.810479 226.623 0.734496C227.314 0.633186 228.005 0.548761 228.705 0.540318C230.45 0.51499 232.204 0.540318 233.949 0.531875C238.366 0.506548 242.784 0.48122 247.21 0.41368C248.086 0.405237 248.803 0.717611 249.385 1.26638C249.697 1.56187 249.899 2.05997 249.975 2.49054C250.051 2.94644 249.975 3.46144 249.831 3.90889C249.747 4.17061 249.427 4.42389 249.149 4.54208C248.862 4.66872 248.499 4.65183 248.171 4.64339C247.564 4.63495 246.948 4.55897 246.341 4.55897C243.332 4.55052 240.322 4.55897 237.313 4.55897V4.56741Z" fill="white"/>
<path d="M72.7787 4.5674C69.5921 4.5674 66.4139 4.5674 63.2272 4.5674C62.2409 4.5674 61.9121 4.24658 61.9121 3.25881C61.9121 2.60029 61.9121 1.95021 61.9121 1.2917C61.9121 0.793586 62.0048 0.692275 62.5107 0.624735C63.3874 0.514982 64.2726 0.481212 65.1662 0.50654C67.122 0.557195 69.0863 0.531867 71.0421 0.523425C72.5933 0.50654 74.1529 0.438999 75.7041 0.430557C78.3259 0.413672 80.9477 0.464327 83.5695 0.413672C85.0701 0.379902 85.4495 1.12284 85.7192 2.31324C85.8878 3.07307 85.6265 3.81601 85.3989 4.54207C85.2724 4.93043 84.9268 4.9051 84.6064 4.87133C84.1006 4.81223 83.6032 4.71937 83.1058 4.65182C82.8108 4.60961 82.5157 4.58428 82.2207 4.58428C79.0762 4.58428 75.9232 4.58428 72.7787 4.58428V4.5674Z" fill="white"/>
<path d="M73.925 32.3265C77.1622 32.3265 80.391 32.3265 83.6282 32.3265C84.1425 32.3265 84.6483 32.3856 85.0614 32.7233C85.2047 32.833 85.3649 33.0103 85.3817 33.1707C85.4323 33.8377 85.4407 34.5047 85.4407 35.1716C85.4407 35.6697 85.1035 35.9314 84.6567 36.0074C84.0245 36.1256 83.3838 36.21 82.7431 36.2607C82.2541 36.3029 81.7651 36.2607 81.2762 36.2691C79.4805 36.3029 77.6849 36.3451 75.8808 36.3705C73.141 36.4127 70.4011 36.4549 67.6529 36.4633C66.068 36.4633 64.4746 36.4042 62.8897 36.362C62.3081 36.3451 62.2322 36.2776 62.0551 35.7119C61.7854 34.8677 61.9287 33.9981 61.9371 33.1454C61.9371 32.8077 62.4008 32.4869 62.8729 32.4447C63.463 32.3856 64.0531 32.3349 64.6432 32.3349C67.7372 32.3265 70.8311 32.3349 73.925 32.3349V32.3265Z" fill="white"/>
<path d="M247.134 36.2607C245.195 36.2607 243.256 36.2354 241.317 36.2607C239.765 36.286 238.206 36.514 236.663 36.4295C233.586 36.2691 230.517 36.2523 227.44 36.2438C226.572 36.2438 226.066 35.7964 225.999 34.9183C225.957 34.3611 226.049 33.787 226.125 33.2214C226.151 33.061 226.311 32.8752 226.463 32.7993C226.766 32.6388 227.095 32.4869 227.432 32.4447C228.056 32.3602 228.68 32.318 229.312 32.318C233.898 32.3096 238.476 32.318 243.062 32.3096C244.284 32.3096 245.498 32.2336 246.72 32.2167C247.193 32.2167 247.665 32.2674 248.128 32.3349C248.685 32.4109 248.98 32.8668 248.988 33.4156C248.988 33.7448 249.132 34.0825 249.233 34.4033C249.536 35.4249 249.005 36.2016 248.17 36.2354" fill="white"/>
</g>
<defs>
<clipPath id="clip0_225_15">
<rect width="250" height="36.5646" fill="white"/>
</clipPath>
</defs>
</svg>
